<svg xmlns="http://www.w3.org/2000/svg" viewBox="0 0 900 816" font-family="Segoe UI, Arial, sans-serif">
  <rect width="900" height="816" fill="#ffffff"/>
  <text x="450" y="30" text-anchor="middle" font-size="19" font-weight="bold" fill="#111111">Lectura rítmica en 4/4 — ocho ejercicios, de menos a más</text>
  <text x="450" y="52" text-anchor="middle" font-size="12.5" fill="#555555">Cada caja suma 4 tiempos. Redonda 4 · blanca 2 · negra 1 · corchea ½ (dos unidas = 1). Metrónomo en 60, contar en voz alta.</text>
<text x="42" y="107" text-anchor="middle" font-size="16" font-weight="bold" fill="#111111">1</text>
<rect x="70" y="70" width="380" height="62" fill="none" stroke="#111111" stroke-width="1.6"/>
<line x1="165" y1="70" x2="165" y2="132" stroke="#cccccc" stroke-width="1" stroke-dasharray="4 4"/>
<line x1="260" y1="70" x2="260" y2="132" stroke="#cccccc" stroke-width="1" stroke-dasharray="4 4"/>
<line x1="355" y1="70" x2="355" y2="132" stroke="#cccccc" stroke-width="1" stroke-dasharray="4 4"/>
<text x="104" y="149" text-anchor="middle" font-size="11.5" fill="#888888">1</text>
<text x="199" y="149" text-anchor="middle" font-size="11.5" fill="#888888">2</text>
<text x="294" y="149" text-anchor="middle" font-size="11.5" fill="#888888">3</text>
<text x="389" y="149" text-anchor="middle" font-size="11.5" fill="#888888">4</text>
<ellipse cx="104" cy="114" rx="10" ry="7" fill="#111111"/><line x1="113" y1="112" x2="113" y2="78" stroke="#111111" stroke-width="2"/><ellipse cx="199" cy="114" rx="10" ry="7" fill="#111111"/><line x1="208" y1="112" x2="208" y2="78" stroke="#111111" stroke-width="2"/><ellipse cx="294" cy="114" rx="10" ry="7" fill="#111111"/><line x1="303" y1="112" x2="303" y2="78" stroke="#111111" stroke-width="2"/><ellipse cx="389" cy="114" rx="10" ry="7" fill="#111111"/><line x1="398" y1="112" x2="398" y2="78" stroke="#111111" stroke-width="2"/><rect x="470" y="70" width="380" height="62" fill="none" stroke="#111111" stroke-width="1.6"/>
<line x1="565" y1="70" x2="565" y2="132" stroke="#cccccc" stroke-width="1" stroke-dasharray="4 4"/>
<line x1="660" y1="70" x2="660" y2="132" stroke="#cccccc" stroke-width="1" stroke-dasharray="4 4"/>
<line x1="755" y1="70" x2="755" y2="132" stroke="#cccccc" stroke-width="1" stroke-dasharray="4 4"/>
<text x="504" y="149" text-anchor="middle" font-size="11.5" fill="#888888">1</text>
<text x="599" y="149" text-anchor="middle" font-size="11.5" fill="#888888">2</text>
<text x="694" y="149" text-anchor="middle" font-size="11.5" fill="#888888">3</text>
<text x="789" y="149" text-anchor="middle" font-size="11.5" fill="#888888">4</text>
<ellipse cx="504" cy="114" rx="10" ry="7" fill="#111111"/><ellipse cx="546" cy="114" rx="10" ry="7" fill="#111111"/><line x1="513" y1="112" x2="513" y2="78" stroke="#111111" stroke-width="2"/><line x1="555" y1="112" x2="555" y2="78" stroke="#111111" stroke-width="2"/><rect x="512" y="76" width="44" height="5.5" fill="#111111"/><text x="546" y="149" text-anchor="middle" font-size="11" fill="#d23333">y</text>
<ellipse cx="599" cy="114" rx="10" ry="7" fill="#111111"/><line x1="608" y1="112" x2="608" y2="78" stroke="#111111" stroke-width="2"/><ellipse cx="694" cy="114" rx="10" ry="7" fill="#111111"/><ellipse cx="736" cy="114" rx="10" ry="7" fill="#111111"/><line x1="703" y1="112" x2="703" y2="78" stroke="#111111" stroke-width="2"/><line x1="745" y1="112" x2="745" y2="78" stroke="#111111" stroke-width="2"/><rect x="702" y="76" width="44" height="5.5" fill="#111111"/><text x="736" y="149" text-anchor="middle" font-size="11" fill="#d23333">y</text>
<ellipse cx="789" cy="114" rx="10" ry="7" fill="#111111"/><line x1="798" y1="112" x2="798" y2="78" stroke="#111111" stroke-width="2"/><text x="42" y="199" text-anchor="middle" font-size="16" font-weight="bold" fill="#111111">2</text>
<rect x="70" y="162" width="380" height="62" fill="none" stroke="#111111" stroke-width="1.6"/>
<line x1="165" y1="162" x2="165" y2="224" stroke="#cccccc" stroke-width="1" stroke-dasharray="4 4"/>
<line x1="260" y1="162" x2="260" y2="224" stroke="#cccccc" stroke-width="1" stroke-dasharray="4 4"/>
<line x1="355" y1="162" x2="355" y2="224" stroke="#cccccc" stroke-width="1" stroke-dasharray="4 4"/>
<text x="104" y="241" text-anchor="middle" font-size="11.5" fill="#888888">1</text>
<text x="199" y="241" text-anchor="middle" font-size="11.5" fill="#888888">2</text>
<text x="294" y="241" text-anchor="middle" font-size="11.5" fill="#888888">3</text>
<text x="389" y="241" text-anchor="middle" font-size="11.5" fill="#888888">4</text>
<ellipse cx="104" cy="206" rx="10" ry="7" fill="#111111"/><ellipse cx="146" cy="206" rx="10" ry="7" fill="#111111"/><line x1="113" y1="204" x2="113" y2="170" stroke="#111111" stroke-width="2"/><line x1="155" y1="204" x2="155" y2="170" stroke="#111111" stroke-width="2"/><rect x="112" y="168" width="44" height="5.5" fill="#111111"/><text x="146" y="241" text-anchor="middle" font-size="11" fill="#d23333">y</text>
<ellipse cx="199" cy="206" rx="10" ry="7" fill="#111111"/><ellipse cx="241" cy="206" rx="10" ry="7" fill="#111111"/><line x1="208" y1="204" x2="208" y2="170" stroke="#111111" stroke-width="2"/><line x1="250" y1="204" x2="250" y2="170" stroke="#111111" stroke-width="2"/><rect x="207" y="168" width="44" height="5.5" fill="#111111"/><text x="241" y="241" text-anchor="middle" font-size="11" fill="#d23333">y</text>
<ellipse cx="294" cy="206" rx="10" ry="7" fill="#111111"/><line x1="303" y1="204" x2="303" y2="170" stroke="#111111" stroke-width="2"/><ellipse cx="389" cy="206" rx="10" ry="7" fill="#111111"/><line x1="398" y1="204" x2="398" y2="170" stroke="#111111" stroke-width="2"/><rect x="470" y="162" width="380" height="62" fill="none" stroke="#111111" stroke-width="1.6"/>
<line x1="565" y1="162" x2="565" y2="224" stroke="#cccccc" stroke-width="1" stroke-dasharray="4 4"/>
<line x1="660" y1="162" x2="660" y2="224" stroke="#cccccc" stroke-width="1" stroke-dasharray="4 4"/>
<line x1="755" y1="162" x2="755" y2="224" stroke="#cccccc" stroke-width="1" stroke-dasharray="4 4"/>
<text x="504" y="241" text-anchor="middle" font-size="11.5" fill="#888888">1</text>
<text x="599" y="241" text-anchor="middle" font-size="11.5" fill="#888888">2</text>
<text x="694" y="241" text-anchor="middle" font-size="11.5" fill="#888888">3</text>
<text x="789" y="241" text-anchor="middle" font-size="11.5" fill="#888888">4</text>
<ellipse cx="504" cy="206" rx="10" ry="7" fill="#111111"/><line x1="513" y1="204" x2="513" y2="170" stroke="#111111" stroke-width="2"/><ellipse cx="599" cy="206" rx="10" ry="7" fill="#111111"/><line x1="608" y1="204" x2="608" y2="170" stroke="#111111" stroke-width="2"/><ellipse cx="694" cy="206" rx="10" ry="7" fill="#ffffff" stroke="#111111" stroke-width="2.5"/><line x1="703" y1="204" x2="703" y2="170" stroke="#111111" stroke-width="2"/><text x="42" y="291" text-anchor="middle" font-size="16" font-weight="bold" fill="#111111">3</text>
<rect x="70" y="254" width="380" height="62" fill="none" stroke="#111111" stroke-width="1.6"/>
<line x1="165" y1="254" x2="165" y2="316" stroke="#cccccc" stroke-width="1" stroke-dasharray="4 4"/>
<line x1="260" y1="254" x2="260" y2="316" stroke="#cccccc" stroke-width="1" stroke-dasharray="4 4"/>
<line x1="355" y1="254" x2="355" y2="316" stroke="#cccccc" stroke-width="1" stroke-dasharray="4 4"/>
<text x="104" y="333" text-anchor="middle" font-size="11.5" fill="#888888">1</text>
<text x="199" y="333" text-anchor="middle" font-size="11.5" fill="#888888">2</text>
<text x="294" y="333" text-anchor="middle" font-size="11.5" fill="#888888">3</text>
<text x="389" y="333" text-anchor="middle" font-size="11.5" fill="#888888">4</text>
<ellipse cx="104" cy="298" rx="10" ry="7" fill="#111111"/><line x1="113" y1="296" x2="113" y2="262" stroke="#111111" stroke-width="2"/><ellipse cx="199" cy="298" rx="10" ry="7" fill="#111111"/><ellipse cx="241" cy="298" rx="10" ry="7" fill="#111111"/><line x1="208" y1="296" x2="208" y2="262" stroke="#111111" stroke-width="2"/><line x1="250" y1="296" x2="250" y2="262" stroke="#111111" stroke-width="2"/><rect x="207" y="260" width="44" height="5.5" fill="#111111"/><text x="241" y="333" text-anchor="middle" font-size="11" fill="#d23333">y</text>
<ellipse cx="294" cy="298" rx="10" ry="7" fill="#111111"/><line x1="303" y1="296" x2="303" y2="262" stroke="#111111" stroke-width="2"/><ellipse cx="389" cy="298" rx="10" ry="7" fill="#111111"/><ellipse cx="431" cy="298" rx="10" ry="7" fill="#111111"/><line x1="398" y1="296" x2="398" y2="262" stroke="#111111" stroke-width="2"/><line x1="440" y1="296" x2="440" y2="262" stroke="#111111" stroke-width="2"/><rect x="397" y="260" width="44" height="5.5" fill="#111111"/><text x="431" y="333" text-anchor="middle" font-size="11" fill="#d23333">y</text>
<rect x="470" y="254" width="380" height="62" fill="none" stroke="#111111" stroke-width="1.6"/>
<line x1="565" y1="254" x2="565" y2="316" stroke="#cccccc" stroke-width="1" stroke-dasharray="4 4"/>
<line x1="660" y1="254" x2="660" y2="316" stroke="#cccccc" stroke-width="1" stroke-dasharray="4 4"/>
<line x1="755" y1="254" x2="755" y2="316" stroke="#cccccc" stroke-width="1" stroke-dasharray="4 4"/>
<text x="504" y="333" text-anchor="middle" font-size="11.5" fill="#888888">1</text>
<text x="599" y="333" text-anchor="middle" font-size="11.5" fill="#888888">2</text>
<text x="694" y="333" text-anchor="middle" font-size="11.5" fill="#888888">3</text>
<text x="789" y="333" text-anchor="middle" font-size="11.5" fill="#888888">4</text>
<ellipse cx="504" cy="298" rx="10" ry="7" fill="#111111"/><ellipse cx="546" cy="298" rx="10" ry="7" fill="#111111"/><line x1="513" y1="296" x2="513" y2="262" stroke="#111111" stroke-width="2"/><line x1="555" y1="296" x2="555" y2="262" stroke="#111111" stroke-width="2"/><rect x="512" y="260" width="44" height="5.5" fill="#111111"/><text x="546" y="333" text-anchor="middle" font-size="11" fill="#d23333">y</text>
<ellipse cx="599" cy="298" rx="10" ry="7" fill="#111111"/><ellipse cx="641" cy="298" rx="10" ry="7" fill="#111111"/><line x1="608" y1="296" x2="608" y2="262" stroke="#111111" stroke-width="2"/><line x1="650" y1="296" x2="650" y2="262" stroke="#111111" stroke-width="2"/><rect x="607" y="260" width="44" height="5.5" fill="#111111"/><text x="641" y="333" text-anchor="middle" font-size="11" fill="#d23333">y</text>
<ellipse cx="694" cy="298" rx="10" ry="7" fill="#ffffff" stroke="#111111" stroke-width="2.5"/><line x1="703" y1="296" x2="703" y2="262" stroke="#111111" stroke-width="2"/><text x="42" y="383" text-anchor="middle" font-size="16" font-weight="bold" fill="#111111">4</text>
<rect x="70" y="346" width="380" height="62" fill="none" stroke="#111111" stroke-width="1.6"/>
<line x1="165" y1="346" x2="165" y2="408" stroke="#cccccc" stroke-width="1" stroke-dasharray="4 4"/>
<line x1="260" y1="346" x2="260" y2="408" stroke="#cccccc" stroke-width="1" stroke-dasharray="4 4"/>
<line x1="355" y1="346" x2="355" y2="408" stroke="#cccccc" stroke-width="1" stroke-dasharray="4 4"/>
<text x="104" y="425" text-anchor="middle" font-size="11.5" fill="#888888">1</text>
<text x="199" y="425" text-anchor="middle" font-size="11.5" fill="#888888">2</text>
<text x="294" y="425" text-anchor="middle" font-size="11.5" fill="#888888">3</text>
<text x="389" y="425" text-anchor="middle" font-size="11.5" fill="#888888">4</text>
<ellipse cx="104" cy="390" rx="10" ry="7" fill="#ffffff" stroke="#111111" stroke-width="2.5"/><line x1="113" y1="388" x2="113" y2="354" stroke="#111111" stroke-width="2"/><ellipse cx="294" cy="390" rx="10" ry="7" fill="#111111"/><ellipse cx="336" cy="390" rx="10" ry="7" fill="#111111"/><line x1="303" y1="388" x2="303" y2="354" stroke="#111111" stroke-width="2"/><line x1="345" y1="388" x2="345" y2="354" stroke="#111111" stroke-width="2"/><rect x="302" y="352" width="44" height="5.5" fill="#111111"/><text x="336" y="425" text-anchor="middle" font-size="11" fill="#d23333">y</text>
<ellipse cx="389" cy="390" rx="10" ry="7" fill="#111111"/><line x1="398" y1="388" x2="398" y2="354" stroke="#111111" stroke-width="2"/><rect x="470" y="346" width="380" height="62" fill="none" stroke="#111111" stroke-width="1.6"/>
<line x1="565" y1="346" x2="565" y2="408" stroke="#cccccc" stroke-width="1" stroke-dasharray="4 4"/>
<line x1="660" y1="346" x2="660" y2="408" stroke="#cccccc" stroke-width="1" stroke-dasharray="4 4"/>
<line x1="755" y1="346" x2="755" y2="408" stroke="#cccccc" stroke-width="1" stroke-dasharray="4 4"/>
<text x="504" y="425" text-anchor="middle" font-size="11.5" fill="#888888">1</text>
<text x="599" y="425" text-anchor="middle" font-size="11.5" fill="#888888">2</text>
<text x="694" y="425" text-anchor="middle" font-size="11.5" fill="#888888">3</text>
<text x="789" y="425" text-anchor="middle" font-size="11.5" fill="#888888">4</text>
<ellipse cx="504" cy="390" rx="10" ry="7" fill="#111111"/><line x1="513" y1="388" x2="513" y2="354" stroke="#111111" stroke-width="2"/><ellipse cx="599" cy="390" rx="10" ry="7" fill="#111111"/><ellipse cx="641" cy="390" rx="10" ry="7" fill="#111111"/><line x1="608" y1="388" x2="608" y2="354" stroke="#111111" stroke-width="2"/><line x1="650" y1="388" x2="650" y2="354" stroke="#111111" stroke-width="2"/><rect x="607" y="352" width="44" height="5.5" fill="#111111"/><text x="641" y="425" text-anchor="middle" font-size="11" fill="#d23333">y</text>
<ellipse cx="694" cy="390" rx="10" ry="7" fill="#ffffff" stroke="#111111" stroke-width="2.5"/><line x1="703" y1="388" x2="703" y2="354" stroke="#111111" stroke-width="2"/><text x="42" y="475" text-anchor="middle" font-size="16" font-weight="bold" fill="#111111">5</text>
<rect x="70" y="438" width="380" height="62" fill="none" stroke="#111111" stroke-width="1.6"/>
<line x1="165" y1="438" x2="165" y2="500" stroke="#cccccc" stroke-width="1" stroke-dasharray="4 4"/>
<line x1="260" y1="438" x2="260" y2="500" stroke="#cccccc" stroke-width="1" stroke-dasharray="4 4"/>
<line x1="355" y1="438" x2="355" y2="500" stroke="#cccccc" stroke-width="1" stroke-dasharray="4 4"/>
<text x="104" y="517" text-anchor="middle" font-size="11.5" fill="#888888">1</text>
<text x="199" y="517" text-anchor="middle" font-size="11.5" fill="#888888">2</text>
<text x="294" y="517" text-anchor="middle" font-size="11.5" fill="#888888">3</text>
<text x="389" y="517" text-anchor="middle" font-size="11.5" fill="#888888">4</text>
<ellipse cx="104" cy="482" rx="10" ry="7" fill="#111111"/><ellipse cx="146" cy="482" rx="10" ry="7" fill="#111111"/><line x1="113" y1="480" x2="113" y2="446" stroke="#111111" stroke-width="2"/><line x1="155" y1="480" x2="155" y2="446" stroke="#111111" stroke-width="2"/><rect x="112" y="444" width="44" height="5.5" fill="#111111"/><text x="146" y="517" text-anchor="middle" font-size="11" fill="#d23333">y</text>
<ellipse cx="199" cy="482" rx="10" ry="7" fill="#111111"/><ellipse cx="241" cy="482" rx="10" ry="7" fill="#111111"/><line x1="208" y1="480" x2="208" y2="446" stroke="#111111" stroke-width="2"/><line x1="250" y1="480" x2="250" y2="446" stroke="#111111" stroke-width="2"/><rect x="207" y="444" width="44" height="5.5" fill="#111111"/><text x="241" y="517" text-anchor="middle" font-size="11" fill="#d23333">y</text>
<ellipse cx="294" cy="482" rx="10" ry="7" fill="#111111"/><ellipse cx="336" cy="482" rx="10" ry="7" fill="#111111"/><line x1="303" y1="480" x2="303" y2="446" stroke="#111111" stroke-width="2"/><line x1="345" y1="480" x2="345" y2="446" stroke="#111111" stroke-width="2"/><rect x="302" y="444" width="44" height="5.5" fill="#111111"/><text x="336" y="517" text-anchor="middle" font-size="11" fill="#d23333">y</text>
<ellipse cx="389" cy="482" rx="10" ry="7" fill="#111111"/><ellipse cx="431" cy="482" rx="10" ry="7" fill="#111111"/><line x1="398" y1="480" x2="398" y2="446" stroke="#111111" stroke-width="2"/><line x1="440" y1="480" x2="440" y2="446" stroke="#111111" stroke-width="2"/><rect x="397" y="444" width="44" height="5.5" fill="#111111"/><text x="431" y="517" text-anchor="middle" font-size="11" fill="#d23333">y</text>
<rect x="470" y="438" width="380" height="62" fill="none" stroke="#111111" stroke-width="1.6"/>
<line x1="565" y1="438" x2="565" y2="500" stroke="#cccccc" stroke-width="1" stroke-dasharray="4 4"/>
<line x1="660" y1="438" x2="660" y2="500" stroke="#cccccc" stroke-width="1" stroke-dasharray="4 4"/>
<line x1="755" y1="438" x2="755" y2="500" stroke="#cccccc" stroke-width="1" stroke-dasharray="4 4"/>
<text x="504" y="517" text-anchor="middle" font-size="11.5" fill="#888888">1</text>
<text x="599" y="517" text-anchor="middle" font-size="11.5" fill="#888888">2</text>
<text x="694" y="517" text-anchor="middle" font-size="11.5" fill="#888888">3</text>
<text x="789" y="517" text-anchor="middle" font-size="11.5" fill="#888888">4</text>
<ellipse cx="504" cy="482" rx="13" ry="9" fill="#ffffff" stroke="#111111" stroke-width="3"/><text x="42" y="567" text-anchor="middle" font-size="16" font-weight="bold" fill="#111111">6</text>
<rect x="70" y="530" width="380" height="62" fill="none" stroke="#111111" stroke-width="1.6"/>
<line x1="165" y1="530" x2="165" y2="592" stroke="#cccccc" stroke-width="1" stroke-dasharray="4 4"/>
<line x1="260" y1="530" x2="260" y2="592" stroke="#cccccc" stroke-width="1" stroke-dasharray="4 4"/>
<line x1="355" y1="530" x2="355" y2="592" stroke="#cccccc" stroke-width="1" stroke-dasharray="4 4"/>
<text x="104" y="609" text-anchor="middle" font-size="11.5" fill="#888888">1</text>
<text x="199" y="609" text-anchor="middle" font-size="11.5" fill="#888888">2</text>
<text x="294" y="609" text-anchor="middle" font-size="11.5" fill="#888888">3</text>
<text x="389" y="609" text-anchor="middle" font-size="11.5" fill="#888888">4</text>
<ellipse cx="104" cy="574" rx="10" ry="7" fill="#111111"/><line x1="113" y1="572" x2="113" y2="538" stroke="#111111" stroke-width="2"/><ellipse cx="199" cy="574" rx="10" ry="7" fill="#ffffff" stroke="#111111" stroke-width="2.5"/><line x1="208" y1="572" x2="208" y2="538" stroke="#111111" stroke-width="2"/><ellipse cx="389" cy="574" rx="10" ry="7" fill="#111111"/><ellipse cx="431" cy="574" rx="10" ry="7" fill="#111111"/><line x1="398" y1="572" x2="398" y2="538" stroke="#111111" stroke-width="2"/><line x1="440" y1="572" x2="440" y2="538" stroke="#111111" stroke-width="2"/><rect x="397" y="536" width="44" height="5.5" fill="#111111"/><text x="431" y="609" text-anchor="middle" font-size="11" fill="#d23333">y</text>
<rect x="470" y="530" width="380" height="62" fill="none" stroke="#111111" stroke-width="1.6"/>
<line x1="565" y1="530" x2="565" y2="592" stroke="#cccccc" stroke-width="1" stroke-dasharray="4 4"/>
<line x1="660" y1="530" x2="660" y2="592" stroke="#cccccc" stroke-width="1" stroke-dasharray="4 4"/>
<line x1="755" y1="530" x2="755" y2="592" stroke="#cccccc" stroke-width="1" stroke-dasharray="4 4"/>
<text x="504" y="609" text-anchor="middle" font-size="11.5" fill="#888888">1</text>
<text x="599" y="609" text-anchor="middle" font-size="11.5" fill="#888888">2</text>
<text x="694" y="609" text-anchor="middle" font-size="11.5" fill="#888888">3</text>
<text x="789" y="609" text-anchor="middle" font-size="11.5" fill="#888888">4</text>
<ellipse cx="504" cy="574" rx="10" ry="7" fill="#111111"/><ellipse cx="546" cy="574" rx="10" ry="7" fill="#111111"/><line x1="513" y1="572" x2="513" y2="538" stroke="#111111" stroke-width="2"/><line x1="555" y1="572" x2="555" y2="538" stroke="#111111" stroke-width="2"/><rect x="512" y="536" width="44" height="5.5" fill="#111111"/><text x="546" y="609" text-anchor="middle" font-size="11" fill="#d23333">y</text>
<ellipse cx="599" cy="574" rx="10" ry="7" fill="#ffffff" stroke="#111111" stroke-width="2.5"/><line x1="608" y1="572" x2="608" y2="538" stroke="#111111" stroke-width="2"/><ellipse cx="789" cy="574" rx="10" ry="7" fill="#111111"/><line x1="798" y1="572" x2="798" y2="538" stroke="#111111" stroke-width="2"/><text x="42" y="659" text-anchor="middle" font-size="16" font-weight="bold" fill="#111111">7</text>
<rect x="70" y="622" width="380" height="62" fill="none" stroke="#111111" stroke-width="1.6"/>
<line x1="165" y1="622" x2="165" y2="684" stroke="#cccccc" stroke-width="1" stroke-dasharray="4 4"/>
<line x1="260" y1="622" x2="260" y2="684" stroke="#cccccc" stroke-width="1" stroke-dasharray="4 4"/>
<line x1="355" y1="622" x2="355" y2="684" stroke="#cccccc" stroke-width="1" stroke-dasharray="4 4"/>
<text x="104" y="701" text-anchor="middle" font-size="11.5" fill="#888888">1</text>
<text x="199" y="701" text-anchor="middle" font-size="11.5" fill="#888888">2</text>
<text x="294" y="701" text-anchor="middle" font-size="11.5" fill="#888888">3</text>
<text x="389" y="701" text-anchor="middle" font-size="11.5" fill="#888888">4</text>
<ellipse cx="104" cy="666" rx="13" ry="9" fill="#ffffff" stroke="#111111" stroke-width="3"/><rect x="470" y="622" width="380" height="62" fill="none" stroke="#111111" stroke-width="1.6"/>
<line x1="565" y1="622" x2="565" y2="684" stroke="#cccccc" stroke-width="1" stroke-dasharray="4 4"/>
<line x1="660" y1="622" x2="660" y2="684" stroke="#cccccc" stroke-width="1" stroke-dasharray="4 4"/>
<line x1="755" y1="622" x2="755" y2="684" stroke="#cccccc" stroke-width="1" stroke-dasharray="4 4"/>
<text x="504" y="701" text-anchor="middle" font-size="11.5" fill="#888888">1</text>
<text x="599" y="701" text-anchor="middle" font-size="11.5" fill="#888888">2</text>
<text x="694" y="701" text-anchor="middle" font-size="11.5" fill="#888888">3</text>
<text x="789" y="701" text-anchor="middle" font-size="11.5" fill="#888888">4</text>
<ellipse cx="504" cy="666" rx="10" ry="7" fill="#111111"/><ellipse cx="546" cy="666" rx="10" ry="7" fill="#111111"/><line x1="513" y1="664" x2="513" y2="630" stroke="#111111" stroke-width="2"/><line x1="555" y1="664" x2="555" y2="630" stroke="#111111" stroke-width="2"/><rect x="512" y="628" width="44" height="5.5" fill="#111111"/><text x="546" y="701" text-anchor="middle" font-size="11" fill="#d23333">y</text>
<ellipse cx="599" cy="666" rx="10" ry="7" fill="#111111"/><line x1="608" y1="664" x2="608" y2="630" stroke="#111111" stroke-width="2"/><ellipse cx="694" cy="666" rx="10" ry="7" fill="#ffffff" stroke="#111111" stroke-width="2.5"/><line x1="703" y1="664" x2="703" y2="630" stroke="#111111" stroke-width="2"/><text x="42" y="751" text-anchor="middle" font-size="16" font-weight="bold" fill="#111111">8</text>
<rect x="70" y="714" width="380" height="62" fill="none" stroke="#111111" stroke-width="1.6"/>
<line x1="165" y1="714" x2="165" y2="776" stroke="#cccccc" stroke-width="1" stroke-dasharray="4 4"/>
<line x1="260" y1="714" x2="260" y2="776" stroke="#cccccc" stroke-width="1" stroke-dasharray="4 4"/>
<line x1="355" y1="714" x2="355" y2="776" stroke="#cccccc" stroke-width="1" stroke-dasharray="4 4"/>
<text x="104" y="793" text-anchor="middle" font-size="11.5" fill="#888888">1</text>
<text x="199" y="793" text-anchor="middle" font-size="11.5" fill="#888888">2</text>
<text x="294" y="793" text-anchor="middle" font-size="11.5" fill="#888888">3</text>
<text x="389" y="793" text-anchor="middle" font-size="11.5" fill="#888888">4</text>
<ellipse cx="104" cy="758" rx="10" ry="7" fill="#111111"/><ellipse cx="146" cy="758" rx="10" ry="7" fill="#111111"/><line x1="113" y1="756" x2="113" y2="722" stroke="#111111" stroke-width="2"/><line x1="155" y1="756" x2="155" y2="722" stroke="#111111" stroke-width="2"/><rect x="112" y="720" width="44" height="5.5" fill="#111111"/><text x="146" y="793" text-anchor="middle" font-size="11" fill="#d23333">y</text>
<ellipse cx="199" cy="758" rx="10" ry="7" fill="#111111"/><line x1="208" y1="756" x2="208" y2="722" stroke="#111111" stroke-width="2"/><ellipse cx="294" cy="758" rx="10" ry="7" fill="#111111"/><line x1="303" y1="756" x2="303" y2="722" stroke="#111111" stroke-width="2"/><ellipse cx="389" cy="758" rx="10" ry="7" fill="#111111"/><ellipse cx="431" cy="758" rx="10" ry="7" fill="#111111"/><line x1="398" y1="756" x2="398" y2="722" stroke="#111111" stroke-width="2"/><line x1="440" y1="756" x2="440" y2="722" stroke="#111111" stroke-width="2"/><rect x="397" y="720" width="44" height="5.5" fill="#111111"/><text x="431" y="793" text-anchor="middle" font-size="11" fill="#d23333">y</text>
<rect x="470" y="714" width="380" height="62" fill="none" stroke="#111111" stroke-width="1.6"/>
<line x1="565" y1="714" x2="565" y2="776" stroke="#cccccc" stroke-width="1" stroke-dasharray="4 4"/>
<line x1="660" y1="714" x2="660" y2="776" stroke="#cccccc" stroke-width="1" stroke-dasharray="4 4"/>
<line x1="755" y1="714" x2="755" y2="776" stroke="#cccccc" stroke-width="1" stroke-dasharray="4 4"/>
<text x="504" y="793" text-anchor="middle" font-size="11.5" fill="#888888">1</text>
<text x="599" y="793" text-anchor="middle" font-size="11.5" fill="#888888">2</text>
<text x="694" y="793" text-anchor="middle" font-size="11.5" fill="#888888">3</text>
<text x="789" y="793" text-anchor="middle" font-size="11.5" fill="#888888">4</text>
<ellipse cx="504" cy="758" rx="10" ry="7" fill="#ffffff" stroke="#111111" stroke-width="2.5"/><line x1="513" y1="756" x2="513" y2="722" stroke="#111111" stroke-width="2"/><ellipse cx="694" cy="758" rx="10" ry="7" fill="#111111"/><line x1="703" y1="756" x2="703" y2="722" stroke="#111111" stroke-width="2"/><ellipse cx="789" cy="758" rx="10" ry="7" fill="#111111"/><ellipse cx="831" cy="758" rx="10" ry="7" fill="#111111"/><line x1="798" y1="756" x2="798" y2="722" stroke="#111111" stroke-width="2"/><line x1="840" y1="756" x2="840" y2="722" stroke="#111111" stroke-width="2"/><rect x="797" y="720" width="44" height="5.5" fill="#111111"/><text x="831" y="793" text-anchor="middle" font-size="11" fill="#d23333">y</text>
</svg>
