<svg xmlns="http://www.w3.org/2000/svg" viewBox="0 0 240 292" font-family="Segoe UI, Arial, sans-serif">
<rect width="240" height="292" fill="#ffffff"/>
<text x="120" y="32" text-anchor="middle" font-size="20" font-weight="bold" fill="#111111">Mim (Em)</text>
<rect x="59" y="61" width="142" height="5" fill="#111111"/>
<line x1="60" y1="114" x2="200" y2="114" stroke="#999999" stroke-width="1.5"/>
<line x1="60" y1="162" x2="200" y2="162" stroke="#999999" stroke-width="1.5"/>
<line x1="60" y1="210" x2="200" y2="210" stroke="#999999" stroke-width="1.5"/>
<line x1="60" y1="258" x2="200" y2="258" stroke="#999999" stroke-width="1.5"/>
<line x1="60" y1="66" x2="60" y2="258" stroke="#333333" stroke-width="2.6"/>
<line x1="88" y1="66" x2="88" y2="258" stroke="#333333" stroke-width="2.35"/>
<line x1="116" y1="66" x2="116" y2="258" stroke="#333333" stroke-width="2.1"/>
<line x1="144" y1="66" x2="144" y2="258" stroke="#333333" stroke-width="1.85"/>
<line x1="172" y1="66" x2="172" y2="258" stroke="#333333" stroke-width="1.6"/>
<line x1="200" y1="66" x2="200" y2="258" stroke="#333333" stroke-width="1.35"/>
<circle cx="60" cy="51" r="7" fill="none" stroke="#111111" stroke-width="2"/>
<circle cx="88" cy="138" r="12" fill="#e8820c"/>
<text x="88" y="143" text-anchor="middle" font-size="14" font-weight="bold" fill="#ffffff">2</text>
<circle cx="116" cy="138" r="12" fill="#2e9e44"/>
<text x="116" y="143" text-anchor="middle" font-size="14" font-weight="bold" fill="#ffffff">3</text>
<circle cx="144" cy="51" r="7" fill="none" stroke="#111111" stroke-width="2"/>
<circle cx="172" cy="51" r="7" fill="none" stroke="#111111" stroke-width="2"/>
<circle cx="200" cy="51" r="7" fill="none" stroke="#111111" stroke-width="2"/>
<text x="60" y="276" text-anchor="middle" font-size="11" fill="#aaaaaa">6ª</text>
<text x="88" y="276" text-anchor="middle" font-size="11" fill="#aaaaaa">5ª</text>
<text x="116" y="276" text-anchor="middle" font-size="11" fill="#aaaaaa">4ª</text>
<text x="144" y="276" text-anchor="middle" font-size="11" fill="#aaaaaa">3ª</text>
<text x="172" y="276" text-anchor="middle" font-size="11" fill="#aaaaaa">2ª</text>
<text x="200" y="276" text-anchor="middle" font-size="11" fill="#aaaaaa">1ª</text>
</svg>