<svg xmlns="http://www.w3.org/2000/svg" width="748" height="285" viewBox="0 0 748 285" font-family="Arial, Helvetica, sans-serif">
<rect width="748" height="285" fill="#ffffff"/>
<text x="374" y="28" text-anchor="middle" font-size="17" font-weight="bold" fill="#111111">Las mismas 7 notas se repiten — el número dice en qué octava estás</text>
<rect x="34" y="78" width="24" height="110" fill="#d9f0dc" stroke="#333333" stroke-width="1.5"/>
<rect x="58" y="78" width="24" height="110" fill="#ffffff" stroke="#333333" stroke-width="1.5"/>
<rect x="82" y="78" width="24" height="110" fill="#ffffff" stroke="#333333" stroke-width="1.5"/>
<rect x="106" y="78" width="24" height="110" fill="#ffffff" stroke="#333333" stroke-width="1.5"/>
<rect x="130" y="78" width="24" height="110" fill="#ffffff" stroke="#333333" stroke-width="1.5"/>
<rect x="154" y="78" width="24" height="110" fill="#ffffff" stroke="#333333" stroke-width="1.5"/>
<rect x="178" y="78" width="24" height="110" fill="#ffffff" stroke="#333333" stroke-width="1.5"/>
<rect x="202" y="78" width="24" height="110" fill="#d9f0dc" stroke="#333333" stroke-width="1.5"/>
<rect x="226" y="78" width="24" height="110" fill="#ffffff" stroke="#333333" stroke-width="1.5"/>
<rect x="250" y="78" width="24" height="110" fill="#ffffff" stroke="#333333" stroke-width="1.5"/>
<rect x="274" y="78" width="24" height="110" fill="#ffffff" stroke="#333333" stroke-width="1.5"/>
<rect x="298" y="78" width="24" height="110" fill="#ffffff" stroke="#333333" stroke-width="1.5"/>
<rect x="322" y="78" width="24" height="110" fill="#ffffff" stroke="#333333" stroke-width="1.5"/>
<rect x="346" y="78" width="24" height="110" fill="#ffffff" stroke="#333333" stroke-width="1.5"/>
<rect x="370" y="78" width="24" height="110" fill="#d9f0dc" stroke="#333333" stroke-width="1.5"/>
<rect x="394" y="78" width="24" height="110" fill="#ffffff" stroke="#333333" stroke-width="1.5"/>
<rect x="418" y="78" width="24" height="110" fill="#ffffff" stroke="#333333" stroke-width="1.5"/>
<rect x="442" y="78" width="24" height="110" fill="#ffffff" stroke="#333333" stroke-width="1.5"/>
<rect x="466" y="78" width="24" height="110" fill="#ffffff" stroke="#333333" stroke-width="1.5"/>
<rect x="490" y="78" width="24" height="110" fill="#ffffff" stroke="#333333" stroke-width="1.5"/>
<rect x="514" y="78" width="24" height="110" fill="#ffffff" stroke="#333333" stroke-width="1.5"/>
<rect x="538" y="78" width="24" height="110" fill="#d9f0dc" stroke="#333333" stroke-width="1.5"/>
<rect x="562" y="78" width="24" height="110" fill="#ffffff" stroke="#333333" stroke-width="1.5"/>
<rect x="586" y="78" width="24" height="110" fill="#ffffff" stroke="#333333" stroke-width="1.5"/>
<rect x="610" y="78" width="24" height="110" fill="#ffffff" stroke="#333333" stroke-width="1.5"/>
<rect x="634" y="78" width="24" height="110" fill="#ffffff" stroke="#333333" stroke-width="1.5"/>
<rect x="658" y="78" width="24" height="110" fill="#ffffff" stroke="#333333" stroke-width="1.5"/>
<rect x="682" y="78" width="24" height="110" fill="#ffffff" stroke="#333333" stroke-width="1.5"/>
<rect x="51" y="78" width="14" height="66" fill="#222222"/>
<rect x="75" y="78" width="14" height="66" fill="#222222"/>
<rect x="123" y="78" width="14" height="66" fill="#222222"/>
<rect x="147" y="78" width="14" height="66" fill="#222222"/>
<rect x="171" y="78" width="14" height="66" fill="#222222"/>
<rect x="219" y="78" width="14" height="66" fill="#222222"/>
<rect x="243" y="78" width="14" height="66" fill="#222222"/>
<rect x="291" y="78" width="14" height="66" fill="#222222"/>
<rect x="315" y="78" width="14" height="66" fill="#222222"/>
<rect x="339" y="78" width="14" height="66" fill="#222222"/>
<rect x="387" y="78" width="14" height="66" fill="#222222"/>
<rect x="411" y="78" width="14" height="66" fill="#222222"/>
<rect x="459" y="78" width="14" height="66" fill="#222222"/>
<rect x="483" y="78" width="14" height="66" fill="#222222"/>
<rect x="507" y="78" width="14" height="66" fill="#222222"/>
<rect x="555" y="78" width="14" height="66" fill="#222222"/>
<rect x="579" y="78" width="14" height="66" fill="#222222"/>
<rect x="627" y="78" width="14" height="66" fill="#222222"/>
<rect x="651" y="78" width="14" height="66" fill="#222222"/>
<rect x="675" y="78" width="14" height="66" fill="#222222"/>
<text x="46" y="210" text-anchor="middle" font-size="14" font-weight="bold" fill="#22883a">Do2</text>
<text x="214" y="210" text-anchor="middle" font-size="14" font-weight="bold" fill="#22883a">Do3</text>
<text x="382" y="210" text-anchor="middle" font-size="14" font-weight="bold" fill="#22883a">Do4</text>
<text x="550" y="210" text-anchor="middle" font-size="14" font-weight="bold" fill="#22883a">Do5</text>
<text x="382" y="228" text-anchor="middle" font-size="11" fill="#555555">(el Do central)</text>
<polyline points="204,66 204,56 372,56 372,66" fill="none" stroke="#cc2222" stroke-width="2"/>
<text x="288" y="48" text-anchor="middle" font-size="13" font-weight="bold" fill="#cc2222">una octava = 12 semitonos</text>
<text x="374" y="272" text-anchor="middle" font-size="13" fill="#333333">De un Do al siguiente Do suena "lo mismo pero más arriba": esa distancia es la octava.</text>
</svg>